<svg width="16" height="16" viewBox="0 0 16 16" fill="none" xmlns="http://www.w3.org/2000/svg">
<path fill-rule="evenodd" clip-rule="evenodd" d="M14.2192 13.748C14.4126 13.748 14.542 13.8004 14.6313 13.8849L14.6412 13.8937C14.741 13.9764 14.8002 14.0976 14.8002 14.2877C14.8002 14.4537 14.7446 14.5679 14.6409 14.6539L14.6313 14.663C14.542 14.7476 14.4126 14.8 14.2192 14.8H1.78119C1.59174 14.8 1.44772 14.7494 1.33553 14.6585C1.25039 14.5755 1.2002 14.4595 1.2002 14.2877C1.2002 14.0927 1.25343 13.9698 1.33556 13.8894C1.44775 13.7985 1.59175 13.748 1.78119 13.748H14.2192ZM8.17492 1.23556C8.23372 1.26341 8.30567 1.30774 8.39147 1.37212L11.507 4.32362L11.5172 4.33208C11.621 4.41807 11.6762 4.53266 11.6762 4.69864C11.6762 4.84118 11.6243 4.9632 11.5073 5.07398C11.3901 5.18499 11.2561 5.23837 11.0952 5.23837C10.959 5.23837 10.8334 5.18882 10.7121 5.07398L8.58119 3.05566V10.5891C8.58119 10.7553 8.52525 10.8848 8.41225 10.9918C8.32296 11.0764 8.19356 11.1288 8.0002 11.1288C7.81362 11.1288 7.67112 11.0797 7.55968 10.9914C7.46815 10.8877 7.4192 10.7581 7.4192 10.5891V3.05566L5.28828 5.07398C5.16704 5.18882 5.04142 5.23837 4.90515 5.23837C4.77095 5.23837 4.62526 5.19001 4.4652 5.07301C4.33886 4.91847 4.29524 4.79484 4.29524 4.69864C4.29524 4.5561 4.34721 4.43408 4.46417 4.3233L7.49742 1.45033L7.50469 1.44659H7.54517L7.60517 1.37351C7.69852 1.25983 7.82266 1.20001 8.0002 1.20001C8.1013 1.20001 8.14301 1.21714 8.15374 1.22391L8.16398 1.23038L8.17492 1.23556Z" fill="#C5C5C5"/>
</svg>
