<svg width="24" height="24" viewBox="0 0 24 24" fill="none" xmlns="http://www.w3.org/2000/svg">
<path fill-rule="evenodd" clip-rule="evenodd" d="M10.6896 16.7047C10.7819 16.8064 10.8775 16.9055 10.9755 17.0014C11.2026 17.223 11.4078 17.468 11.5714 17.7414C11.9641 18.3972 12.1813 19.1722 12.1569 20.0005C12.0927 22.1963 10.3084 23.97 8.13596 23.9996C5.85679 24.0309 4 22.1726 4 19.8751C4 19.0693 4.2287 18.3172 4.62388 17.6818C4.77923 17.4318 4.97125 17.208 5.18141 17.003C5.2803 16.9064 5.37632 16.8072 5.46944 16.7047C6.59687 15.4664 7.28709 13.8152 7.29203 12.0002C7.28709 10.1852 6.59687 8.534 5.46944 7.29569C5.37632 7.19319 5.2803 7.09402 5.18141 6.99736C4.97125 6.79236 4.77923 6.56862 4.62388 6.31862C4.2287 5.68321 4 4.93114 4 4.12532C4 1.82785 5.85679 -0.0304547 8.13596 0.000378204C10.3084 0.0303778 12.0927 1.8041 12.1569 3.9999C12.1813 4.82822 11.9641 5.60321 11.5714 6.25904C11.4078 6.53237 11.2026 6.77736 10.9755 6.99903C10.8775 7.09486 10.7819 7.19402 10.6896 7.29569C9.56213 8.534 8.87191 10.1852 8.86697 12.0002C8.87191 13.8152 9.56213 15.4664 10.6896 16.7047ZM20.3999 11.9999C20.3999 14.2622 18.5862 16.0961 16.3489 16.0961C14.1115 16.0961 12.2978 14.2622 12.2978 11.9999C12.2978 9.73763 14.1115 7.9037 16.3489 7.9037C18.5862 7.9037 20.3999 9.73763 20.3999 11.9999Z" fill="#808080"/>
</svg>
